<svg xmlns="http://www.w3.org/2000/svg" viewBox="0 0 90 90" xml:space="preserve"><circle cx="48.669" cy="37.639" r="3.601"/><path d="M56.064 36h-3.146c.301 0 .475 1.263.475 2s-.174 1-.475 2h3.146c1.134 0 2.053-.866 2.053-2s-.919-2-2.053-2zM43.945 38c0-.737.173-2 .474-2H31.436c-1.133 0-2.052.866-2.052 2s.919 2 2.052 2h12.983c-.301-1-.474-1.263-.474-2z"/><circle cx="37.175" cy="47.49" r="3.601"/><path d="M32.452 47.5c0-.737.173-1.5.474-2.5h-1.49c-1.133 0-2.052 1.366-2.052 2.5s.919 2.5 2.052 2.5h1.49c-.301-1-.474-1.764-.474-2.5zM56.064 45h-14.64c.3 1 .474 1.763.474 2.5 0 .736-.174 1.5-.474 2.5h14.64c1.134 0 2.053-1.366 2.053-2.5s-.919-2.5-2.053-2.5z"/><circle cx="51.952" cy="57.342" r="3.601"/><path d="M47.229 57c0-.736.173-1 .475-2H31.436c-1.133 0-2.052.867-2.052 2 0 1.135.919 2 2.052 2h16.268c-.302 0-.475-1.264-.475-2zM56.209 55.304c.296.618.467 1.307.467 2.038s-.171 1.42-.467 2.038c1.064-.075 1.908-.954 1.908-2.038s-.844-1.963-1.908-2.038zM14.773 47.502c1.067.662 1.902 1.402 2.503 2.222.601.819 1.022 1.864 1.263 3.135.24 1.271.361 2.898.361 4.884 0 1.488.034 2.586.102 3.293.067.706.203 1.244.406 1.612.203.368.447.609.733.722.285.113.774.222 1.466.327.571.075 1.045.354 1.421.835.376.48.564 1.112.564 1.895 0 1.819-1.105 2.729-3.315 2.729-1.369 0-2.59-.285-3.666-.856-1.075-.572-1.906-1.38-2.492-2.425s-.887-2.244-.902-3.598c-.045-2.286-.09-4.12-.135-5.503-.045-1.384-.113-2.278-.203-2.685-.226-1.007-.561-1.767-1.004-2.278-.444-.511-1.023-.988-1.737-1.432-.714-.443-1.222-.842-1.522-1.195s-.451-.914-.451-1.681c0-1.112.436-1.947 1.309-2.504 1.083-.676 1.853-1.251 2.312-1.725s.782-1.083.97-1.827c.188-.744.296-1.556.327-2.436.03-.88.075-2.996.135-6.35.045-2.075.703-3.732 1.974-4.973s2.966-1.861 5.086-1.861c2.21 0 3.315.895 3.315 2.684 0 .812-.185 1.451-.553 1.917a2.104 2.104 0 0 1-1.432.812c-.872.121-1.481.301-1.827.542-.346.241-.571.707-.676 1.398-.105.692-.173 2.03-.203 4.015-.03 1.94-.146 3.53-.35 4.771-.203 1.24-.602 2.297-1.195 3.169-.596.871-1.457 1.66-2.584 2.367zM70.145 45.134c-.594-.872-.992-1.929-1.195-3.169-.203-1.241-.318-2.831-.35-4.771-.029-1.985-.098-3.323-.203-4.015-.104-.691-.33-1.158-.676-1.398-.346-.24-.955-.421-1.827-.542a2.106 2.106 0 0 1-1.433-.812c-.367-.466-.553-1.105-.553-1.917 0-1.789 1.105-2.684 3.316-2.684 2.119 0 3.815.62 5.086 1.861s1.928 2.898 1.974 4.973c.06 3.354.104 5.47.136 6.35.029.879.139 1.691.326 2.436.188.745.512 1.354.971 1.827.458.474 1.229 1.049 2.311 1.725.873.557 1.309 1.392 1.309 2.504 0 .767-.15 1.327-.451 1.681s-.808.752-1.521 1.195c-.715.443-1.293.921-1.737 1.432-.443.512-.778 1.271-1.004 2.278-.09.406-.157 1.301-.202 2.685a426.772 426.772 0 0 0-.136 5.503c-.015 1.354-.315 2.553-.902 3.598s-1.417 1.853-2.492 2.425c-1.075.571-2.297.856-3.665.856-2.211 0-3.316-.909-3.316-2.729 0-.782.188-1.414.564-1.895.376-.481.85-.76 1.421-.835.692-.105 1.181-.214 1.466-.327.286-.112.53-.354.733-.722.202-.368.339-.906.405-1.612.068-.707.102-1.805.102-3.293 0-1.985.121-3.612.361-4.884.24-1.271.662-2.315 1.264-3.135s1.436-1.56 2.503-2.222c-1.13-.706-1.991-1.495-2.585-2.367z"/></svg>