<svg xmlns="http://www.w3.org/2000/svg" viewBox="-15 -15 128 128" xml:space="preserve"><path style="stroke:none;fill-rule:nonzero;fill:#000;fill-opacity:1" d="M96.473 86.578 61.746 51.852a33.602 33.602 0 0 0 5.305-20.809 33.57 33.57 0 0 0-9.739-21.207C50.97 3.492 42.54 0 33.57 0h-.133C24.422.031 15.97 3.59 9.642 10.02-3.3 23.156-3.178 44.414 9.907 57.414A33.582 33.582 0 0 0 31.09 67.07a33.602 33.602 0 0 0 20.75-5.312l34.722 34.726A5.17 5.17 0 0 0 90.23 98a5.17 5.17 0 0 0 3.668-1.516l2.575-2.574a5.194 5.194 0 0 0 0-7.332Zm-2.762 4.574-2.57 2.57c-.504.5-1.317.5-1.817 0l-35.867-35.87a1.967 1.967 0 0 0-1.383-.57c-.41 0-.808.128-1.14.37-11.817 8.543-27.914 7.278-38.274-3.007C1.09 43.156.984 24.367 12.422 12.758c5.594-5.68 13.066-8.824 21.031-8.856h.117c7.926 0 15.375 3.082 20.985 8.696C64.918 22.96 66.215 39.09 57.64 50.945a1.953 1.953 0 0 0 .199 2.524l35.87 35.87c.5.5.5 1.313 0 1.813Zm0 0"/><path style="stroke:none;fill-rule:nonzero;fill:#000;fill-opacity:1" d="M50.668 16.48c-9.43-9.43-24.77-9.43-34.2 0-4.57 4.567-7.081 10.641-7.081 17.098 0 6.461 2.511 12.535 7.082 17.102a24.013 24.013 0 0 0 17.097 7.086c6.461 0 12.536-2.516 17.102-7.086 9.43-9.43 9.43-24.77 0-34.2ZM47.91 47.922a20.168 20.168 0 0 1-14.344 5.941c-5.414 0-10.507-2.113-14.34-5.941-3.831-3.828-5.937-8.922-5.937-14.34a20.148 20.148 0 0 1 5.938-14.344c3.953-3.953 9.148-5.93 14.34-5.93 5.19 0 10.386 1.981 14.343 5.93 7.906 7.91 7.906 20.774 0 28.68Zm0 0"/><path style="stroke:none;fill-rule:nonzero;fill:#000;fill-opacity:1" d="M21.664 30.043a1.94 1.94 0 0 0-.156-1.488 1.942 1.942 0 0 0-1.16-.938 1.945 1.945 0 0 0-2.426 1.317 16.31 16.31 0 0 0 4.11 16.187c.363.367.859.57 1.378.57a1.96 1.96 0 0 0 1.38-.57 1.954 1.954 0 0 0 0-2.762 12.416 12.416 0 0 1-3.126-12.316Zm5.945-11.656a16.107 16.107 0 0 0-5.578 3.656 1.949 1.949 0 0 0 2.754 2.758 12.459 12.459 0 0 1 4.246-2.781 1.95 1.95 0 0 0 .547-3.375 1.947 1.947 0 0 0-1.973-.258Zm0 0"/></svg>
